<?xml version="1.0" encoding="utf-8"?>
<!-- Generator: Adobe Illustrator 26.0.1, SVG Export Plug-In . SVG Version: 6.00 Build 0)  -->
<svg version="1.1" id="圖層_1" xmlns="http://www.w3.org/2000/svg" xmlns:xlink="http://www.w3.org/1999/xlink" x="0px" y="0px"
	 viewBox="0 0 1366 286" style="enable-background:new 0 0 1366 286;" xml:space="preserve">
<style type="text/css">
	.st0{fill:#3B4900;}
</style>
<g>
	<path class="st0" d="M71.8,155.3c-18.7,45.8-19.7,80.1-2.8,102.8c5.6,7.7,12.9,13.9,21.9,18.5c9.1,4.6,16.8,7.3,23.1,8.3
		c6.3,0.9,12.5,1.4,18.6,1.4h0.4c25.6,0,50.6-7,75.1-21.1c28.9-16.9,51.7-39.7,68.5-68.3H241c-11.4,17.1-25.6,30.6-42.8,40.5
		c-16.2,9.4-33.4,14.1-51.5,14.1c-20.2,0-35-6.5-44.3-19.4c-4.1-5.6-6.6-12-7.7-19.2c-1.1-7.2-0.7-14.7,1.1-22.7
		c1.8-8,3.4-14.2,4.9-18.7c1.4-4.5,3.4-9.7,5.9-15.8c2.4-5.9,4.5-10.7,6.4-14.4c0.2-0.4,0.4-0.8,0.6-1.2H78.7
		C76.7,144.4,74.3,149.5,71.8,155.3z"/>
	<path class="st0" d="M135,107c5.5-6.1,11.7-11.9,18.6-17.3c4.2-3.5,9-7,14.4-10.4c5.4-3.4,13.5-7.2,24.3-11.4
		c10.9-4.2,21.2-6.6,31-7c21.9-0.7,36.6,4.8,44,16.6c3.6,6.1,5.3,13.6,5,22.5h35.9c3.4-18.8,1.2-34.6-6.5-47.5
		C290.1,33.7,268.2,24.9,236,26c-10.8,0.5-21.8,2.4-33.1,5.6c-11.3,3.3-21.5,7.4-30.5,12.3c-9,4.9-16.3,9.2-21.7,12.7
		c-5.4,3.5-10.2,6.9-14.3,10.2c-9.7,7.7-18.5,15.9-26.3,24.5c-7.8,8.6-14.3,17.3-19.3,26.1c-1.3,2.3-2.6,4.5-3.7,6.6h35.2
		C125.8,118.2,130,112.6,135,107z"/>
	<polygon class="st0" points="455.6,75.3 453.8,124 488.7,124 492.1,28.5 456.6,28.5 382.9,124 418,124 	"/>
	<polygon class="st0" points="451.9,172.6 380.4,172.6 405.6,140 370.5,140 257.7,286.3 292.9,286.3 361.8,196.9 450.9,196.9 
		447.9,286.3 482.7,286.3 488.1,140 453.1,140 	"/>
	<polygon class="st0" points="528.4,216.9 615.4,216.9 628.5,184.5 541.5,184.5 	"/>
	<path class="st0" d="M738.4,109.5h2.5h28.9h2.5L784,80.3h-0.7h-1.8h-0.7h-28.2h-2.5c6-14.8,9.2-22.9,9.8-24.3
		c4.6-10.3,10.3-17.7,17.1-22.2c6.1-4,11.8-5.9,17.1-5.6c0.2,0,0.6,0,1.1,0c2.7,0.2,4.9,0.9,6.5,2.1l0.4-1.1L813.5,1
		c-4.6-0.9-9.4-1.4-14.6-1.4c-17,0.2-31.3,4.9-43,14.1c-5.8,4.5-11.2,10.2-16.1,17.3c-5,7-8.7,13.9-11.1,20.4
		c-0.6,1.4-0.9,2.2-1,2.5c-0.5,1.2-4,10-10.7,26.4h-2.5h-24h-2.5l-11.7,28.9l-0.1,0.4h2.5h24h2.5c-1.9,4.7-3.8,9.5-5.9,14.5h33.1
		C734.5,119.1,736.5,114.2,738.4,109.5z"/>
	<path class="st0" d="M644.8,259.2l-11,27.1h33.1l11-27.1C696,214.3,712.1,174.6,726,140h-33.1C679.6,173,663.5,212.8,644.8,259.2z"
		/>
	<path class="st0" d="M879.4,110.9c11.8,0,20.4,4.4,25.9,13.1h44.3c-0.9-5.2-2.4-10.1-4.6-14.7C936.1,90.4,918.2,81,891.5,81
		c-26.8,0-52.2,9.5-76.4,28.4c-5.8,4.5-11.3,9.4-16.4,14.7h44.2C855.4,115.3,867.6,110.9,879.4,110.9z"/>
	<path class="st0" d="M904.2,183.7c-8.1,20.1-20.3,37.2-36.6,51.4c-16.3,14.2-32,21.3-47,21.3c-15,0-25-7.1-30-21.3
		c-4.9-14.2-3.4-31.3,4.8-51.4c6.7-16.5,16.2-31.1,28.5-43.7h-39.1c-9.9,13-18.1,27.6-24.7,43.8c-12.3,30.5-14,55.2-5.1,74.1
		c8.9,18.9,26.8,28.4,53.5,28.4c26.8,0,52.2-9.4,76.4-28.4c24.2-18.9,42.5-43.6,54.8-74.1c6.6-16.3,10.2-30.9,10.8-43.8h-39.4
		C913.2,152.6,910.9,167.1,904.2,183.7z"/>
	<path class="st0" d="M1116,155.6l-52.8,130.7h33.5l53.1-131.4l0.4-1.1c1.3-3.8,2.4-7.9,3.3-12.5c0.1-0.4,0.2-0.9,0.3-1.4h-34.4
		C1118.7,145.3,1117.6,150.5,1116,155.6z"/>
	<path class="st0" d="M1085.2,114.1c12.8-3.8,22.1-3.6,28,0.4c3,2.1,4.9,5.3,5.9,9.6h36.7c0-0.3,0.1-0.6,0.1-0.9
		c0.7-7.6-0.1-15-2.6-22c-2.4-7-6.5-12.4-12.3-16.2c-12.4-8.9-30.2-9.9-53.5-2.8c-13.9,4.2-28,10.9-42.3,20.1l7.7-19h-35.2
		l-16.5,40.9h61.7C1070.5,119.6,1077.9,116.3,1085.2,114.1z"/>
	<path class="st0" d="M935.7,286.3h35.2l52.5-130c5.5-5.9,11.2-11.4,17.1-16.4h-45.7L935.7,286.3z"/>
	<path class="st0" d="M1218.2,141.6l-37.6,93c-4.8,11.3-6,21.3-3.6,29.9c3.6,14.3,15,21.6,34.1,21.8c1.2,0,2,0,2.5,0
		c2.3,0,4.7-0.2,7-0.7c1.8-0.5,3.8-1.2,5.8-2.1l10-24c-8.1,0.9-14.3-0.7-18.4-4.9c-2.9-2.8-4.6-6.3-5.2-10.6c0-0.7,0.1-1.3,0.1-1.9
		c0-0.6,0-1,0-1.2c0-0.2,0-0.5,0.1-0.7c-0.1-0.9-0.1-1.5,0-1.8c0.3-1.4,0.8-2.8,1.4-4.2l37.4-92.6l0.6-1.6h-33.5L1218.2,141.6z"/>
	<polygon class="st0" points="1266,106 1289.9,106 1298,106 1309,78.9 1276.9,78.9 1280.9,69 1297.6,27.8 1262.4,27.8 1245.7,69 
		1241.7,78.9 1214.6,78.9 1213.2,78.9 1202.2,106 1203.6,106 1230.8,106 1232.5,106 1225.3,124 1258.7,124 	"/>
</g>
</svg>
