<?xml version="1.0" encoding="utf-8"?>
<!-- Generator: Adobe Illustrator 26.0.1, SVG Export Plug-In . SVG Version: 6.00 Build 0)  -->
<svg version="1.1" id="圖層_1" xmlns="http://www.w3.org/2000/svg" xmlns:xlink="http://www.w3.org/1999/xlink" x="0px" y="0px"
	 viewBox="0 0 725 164" style="enable-background:new 0 0 725 164;" xml:space="preserve">
<style type="text/css">
	.st0{fill:#425606;}
</style>
<g>
	<path class="st0" d="M108.9,111.6h19.5c-2.8,15.7-10.3,28.2-22.4,37.5c-10.3,7.7-22.5,11.6-36.6,11.6h-0.2c-3.4,0-6.9-0.3-10.5-0.8
		c-3.7-0.5-8.5-2-14.5-4.5c-6-2.5-11.4-5.9-16.2-10.2C13.7,132.8,6.6,113.9,6.8,88.8c0.1-3.7,0.3-6.9,0.5-9.6
		C7.5,76.6,8,72.8,8.8,68c0.8-4.8,2.4-9.6,4.8-14.3c2.4-4.7,5.4-9.2,9-13.4c1.5-1.8,3.4-3.7,5.6-5.6c2.2-1.9,5.2-4.3,9.1-7
		s8.5-5,14-6.8c5.5-1.8,11.1-2.8,16.9-3.1c17.4-0.6,31.4,4.2,42,14.5c7.1,7.1,11.8,15.8,14.1,26.1h-19.7c-1.8-4.9-4.4-9-7.7-12.4
		c-6.7-6.4-16-9.5-27.9-9.1c-5.3,0.3-10.4,1.5-15.5,3.9s-8.6,4.4-10.8,6.3c-2.2,1.9-4.1,3.8-5.6,5.7c-2.6,3-4.7,6.1-6.4,9.5
		c-1.7,3.4-2.8,6.8-3.4,10.4c-0.6,3.5-1,6.4-1.2,8.4c-0.2,2.1-0.3,4.7-0.3,7.9c0,3.4,0.1,6.3,0.3,8.7c0.2,2.5,0.7,5.9,1.5,10.3
		c0.8,4.4,2.3,8.5,4.5,12.5c2.2,3.9,5,7.4,8.5,10.5c8,7.1,17.5,10.6,28.6,10.6c9.9,0,18.3-2.6,25.2-7.7
		C101.6,128.4,106.5,121,108.9,111.6z"/>
	<path class="st0" d="M242.4,160.8l-18.2-49.1h-49l-18,49.1H138l52-141.6h19.5l52,141.6H242.4z M180.1,98.3h39.3l-19.5-53.4
		L180.1,98.3z"/>
	<path class="st0" d="M271.3,160.8v-15.3h105.6v15.3H271.3z"/>
	<path class="st0" d="M429.5,47.6h0.4v16.1h-1.4h-15.9h-1.4c0,22.6,0,50,0,82.2v14.9h-18.2v-14.9c0-33.9,0-61.3,0-82.2h-1.4h-13.2
		h-1.4v-0.2V47.6h1.4h13.2h1.4c0-9,0-13.9,0-14.5c0-0.1,0-0.6,0-1.4c-0.1-3.6,0.4-7.4,1.5-11.2s2.8-7,5-9.5c4.4-5,11.2-7.6,20.5-7.7
		c2.8,0,5.6,0.3,8.3,0.8v15.5v0.6c-1.2-0.6-2.5-1-4.1-1.2c-0.3,0-0.5,0-0.6,0c-3-0.1-5.7,0.9-8.1,3.1c-2.7,2.5-4.2,6.5-4.5,12.2
		c0,0.8,0,5.2,0,13.4h1.4h15.5h0.4H429.5z"/>
	<path class="st0" d="M524.8,63.5c9.1,10.4,13.6,24,13.6,40.9c0,16.8-4.5,30.3-13.6,40.7c-9.1,10.4-21,15.6-35.7,15.6
		c-14.7,0-26.6-5.2-35.7-15.6c-9.1-10.4-13.6-24-13.6-40.7c0-16.9,4.5-30.5,13.6-40.9c9.1-10.4,21-15.6,35.7-15.6
		C503.8,47.9,515.7,53.1,524.8,63.5z M467.9,132.6c5.9,7.8,12.9,11.7,21.2,11.7c8.3,0,15.3-3.9,21.1-11.7c5.8-7.8,8.7-17.2,8.7-28.2
		s-2.9-20.4-8.7-28.2c-5.8-7.8-12.8-11.7-21.1-11.7c-8.3,0-15.3,3.9-21.2,11.7c-5.9,7.8-8.8,17.2-8.8,28.2S462.1,124.8,467.9,132.6z
		"/>
	<path class="st0" d="M647.4,88v0.6v72.2H629V89c-0.4-4.3-1.5-8.6-3.2-13.2c-1.7-4.5-4.2-7.7-7.4-9.5c-4.1-2.2-9.3-2.3-15.5-0.2
		c-4.9,1.7-9.5,4.5-13.7,8.6c-4.3,4.1-7.9,8.9-10.8,14.6v71.4H559V49.1h19.3v10.4c5.8-5,12.1-8.7,18.8-11c11.2-3.9,21.2-3.4,30,1.5
		c4,2.1,7.4,5,10.4,8.9c2.9,3.9,5,7.9,6.3,12.1c1.3,4.2,2.2,7.5,2.7,10.1C647,83.6,647.3,85.9,647.4,88z"/>
	<path class="st0" d="M701.8,137.5c1.3,2.3,3,4.3,5.2,5.8c3.2,2.3,7,3.2,11.2,2.7l-0.2,13.2c-0.9,0.5-1.8,0.9-2.7,1.2
		c-1.2,0.3-2.4,0.4-3.7,0.4c-0.3,0-0.7,0-1.4,0c-10.6-0.1-18.4-4.1-23.6-12c-3.2-4.8-4.8-10.3-4.6-16.4V81.2V61.7h-1h-14.9h-0.8
		V46.8h0.8h14.9v-5.4V18.7h19.3v22.6v5.4H718v14.9h-4.5h-13.2v19.5v50.9c0,0.8,0.1,1.5,0.2,2.3c0,0.1,0.1,0.5,0.4,1
		c0,0.1,0,0.3,0.1,0.4c0.1,0.1,0.2,0.4,0.3,0.7C701.5,136.8,701.7,137.1,701.8,137.5z"/>
</g>
</svg>
